<svg width="480px" height="82px" viewBox="0 0 480 82" version="1.1" xmlns="http://www.w3.org/2000/svg" xmlns:xlink="http://www.w3.org/1999/xlink"> <title>JAXXON</title> <desc>Created with Sketch.</desc> <g id="Page-1" stroke="none" stroke-width="1" fill="none" fill-rule="evenodd"> <g id="JAXXON-NEW-LOGO-(CUFFS-+-PENDANTS)-Copy-16" fill="#000000"> <path d="M42.3426984,74.6349774 C46.7998246,70.1224179 49.0283877,63.8086273 49.0283877,55.6936057 L49.0283877,1.08784906 L33.9855868,1.08784906 L33.9855868,55.3523198 C33.9855868,59.0685454 33.0755898,61.9315543 31.2555972,63.9413501 C29.4356045,65.9511459 26.8913271,66.9560429 23.6227686,66.9560429 C21.0227789,66.9560429 18.2556453,66.17867 15.3213711,64.623922 C12.387097,63.0691743 9.61996337,60.8887372 7.01997369,58.0826076 L0,69.4588068 C6.38854692,77.4221463 14.411374,81.403816 24.0684813,81.403816 C31.7941661,81.403816 37.8855723,79.1475371 42.3426984,74.6349774 Z" id="JAXXON"/> <polygon id="Path" points="148.802778 1.08784906 175.099822 39.8806886 147.019928 80.721244 164.514148 80.721244 184.236931 52.280746 204.182571 80.721244 222.122504 80.721244 193.708324 39.1981166 219.893939 1.08784906 202.176864 1.08784906 184.236931 27.2531075 166.296998 1.08784906"/> <polygon id="Path" points="465.514339 1.08784906 465.514339 56.0348917 425.288776 1.08784906 411.137401 1.08784906 411.137401 80.721244 425.734489 80.721244 425.734489 25.8879635 465.848625 80.721244 480 80.721244 480 1.08784906"/> <g id="Group-25" transform="translate(57.541887, 0.820000)"> <path d="M67.703446,79.901244 L60.7949005,63.0644692 L22.686472,63.0644692 L15.7779265,79.901244 L0.28941309,79.901244 L34.4978564,0.267849057 L49.9863697,0.267849057 L83.7491003,79.901244 L67.703446,79.901244 Z M28.0350233,49.98184 L55.4463491,49.98184 L41.8521143,16.535814 L28.0350233,49.98184 Z" id="Combined-Shape"/> </g> <g id="Group-10" transform="translate(313.010711, 0.000000)"> <path d="M63.3509537,5.41080478 C69.7023584,8.97534666 74.6980534,13.8671123 78.3380404,20.0861019 C81.9780272,26.3050913 83.7980198,33.2066511 83.7980198,40.7907846 C83.7980198,48.3749181 81.9780272,55.2954386 78.3380404,61.5523482 C74.6980534,67.8092579 69.7023584,72.7579045 63.3509537,76.3982884 C56.9995489,80.0386721 49.9610034,81.858864 42.2353187,81.858864 C34.5096339,81.858864 27.4710882,80.0386721 21.1196834,76.3982884 C14.7682787,72.7579045 9.77258367,67.8092579 6.13259676,61.5523482 C2.49260984,55.2954386 0.672617229,48.3749181 0.672617229,40.7907846 C0.672617229,33.2066511 2.49260984,26.3050913 6.13259676,20.0861019 C9.77258367,13.8671123 14.7682787,8.97534666 21.1196834,5.41080478 C27.4710882,1.84626292 34.5096339,0.0639911209 42.2353187,0.0639911209 C49.9610034,0.0639911209 56.9995489,1.84626292 63.3509537,5.41080478 Z M29.1982246,17.2989331 C25.1125251,19.6879349 21.8811085,22.9491127 19.5039752,27.0824645 C17.1268418,31.2158162 15.9382743,35.7852568 15.9382743,40.7907846 C15.9382743,45.7963122 17.1454121,50.384712 19.5596893,54.5559857 C21.9739664,58.7272595 25.2053829,62.0263572 29.2539388,64.453279 C33.3024944,66.8802011 37.7039063,68.0936629 42.4581749,68.0936629 C47.1381574,68.0936629 51.4838553,66.8802011 55.4952689,64.453279 C59.5066823,62.0263572 62.6823848,58.7272595 65.022376,54.5559857 C67.3623673,50.384712 68.5323628,45.7963122 68.5323628,40.7907846 C68.5323628,35.7852568 67.3623673,31.2158162 65.022376,27.0824645 C62.6823848,22.9491127 59.5066823,19.6879349 55.4952689,17.2989331 C51.4838553,14.9099312 47.1381574,13.7154303 42.4581749,13.7154303 C37.7039063,13.7154303 33.2839241,14.9099312 29.1982246,17.2989331 Z" id="Combined-Shape"/> </g> <g id="Group" transform="translate(230.636001, 1.077090)"> <path d="M0.715349473,0 L18.2095696,0 L74.0350745,79.6333951 L56.0951418,79.6333951 L0.715349473,0 Z M14.3369711,60.2524349 L27.9585928,79.6400606 L0.715349473,79.6400606 L14.3369711,60.2524349 Z M60.4126415,19.3876257 L46.7910198,0 L74.0342631,0 L60.4126415,19.3876257 Z" id="Path"/> </g> </g> </g></svg>